<svg viewBox="0 0 800 800" xmlns="http://www.w3.org/2000/svg"><path d="M92.81874405190007,96.4831024734001 L92.81448874882528,70.6311398091367 M65.95523269515809,111.98068942313915 L65.95023051379707,86.1282952101468 M92.81874405190007,96.4831024734001 L65.95523269515809,111.98068942313915 M92.81448874882528,70.6311398091367 L65.95023051379707,86.1282952101468 M119.66360870457879,142.97895822421845 L119.66009924344291,117.12570091381315 M65.95523269515809,111.98068942313915 L119.66360870457879,142.97895822421845 M65.95023051379707,86.1282952101468 L119.66009924344291,117.12570091381315 M146.52712068292016,127.47930335330818 L146.5243581001224,101.62647759172944 M119.66360870457879,142.97895822421845 L146.52712068292016,127.47930335330818 M119.66009924344291,117.12570091381315 L146.5243581001224,101.62647759172944 M146.52712068292016,127.47930335330818 L92.81874405190007,96.4831024734001 M146.5243581001224,101.62647759172944 L92.81448874882528,70.6311398091367" stroke="black"  stroke-width="4"  fill="red"/>
<path d="M232.48008439438456,15.912333569373061 L232.47971125165208,-9.937385042995288 M205.62589747206295,31.404541243437222 L205.62477796919688,5.554391082776192 M232.48008439438456,15.912333569373061 L205.62589747206295,31.404541243437222 M232.47971125165208,-9.937385042995288 L205.62477796919688,5.554391082776192 M259.3342754081652,62.392059115831785 L259.3346486256849,36.54104585832812 M205.62589747206295,31.404541243437222 L259.3342754081652,62.392059115831785 M205.62477796919688,5.554391082776192 L259.3346486256849,36.54104585832812 M286.18846233048384,46.89778459690672 L286.18958190813714,21.047202887823346 M259.3342754081652,62.392059115831785 L286.18846233048384,46.89778459690672 M259.3346486256849,36.54104585832812 L286.18958190813714,21.047202887823346 M286.18846233048384,46.89778459690672 L232.48008439438456,15.912333569373061 M286.18958190813714,21.047202887823346 L232.47971125165208,-9.937385042995288" stroke="black"  stroke-width="4"  fill="red"/>
<path d="M245.90650619493368,369.9088627482073 L245.90650619493368,-12.48736515503748 M16.80527271036715,502.180521572197 L16.71102108925993,119.72986367902661 M245.90650619493368,369.9088627482073 L16.80527271036715,502.180521572197 M245.90650619493368,-12.48736515503748 L16.71102108925993,119.72986367902661 M553.9667326099657,812.4873651550374 L554.0935523502368,429.9091369704138 M16.80527271036715,502.180521572197 L553.9667326099657,812.4873651550374 M16.71102108925993,119.72986367902661 L554.0935523502368,429.9091369704138 M783.0679076215837,680.0391424601604 L783.2889789107401,297.5153442513971 M553.9667326099657,812.4873651550374 L783.0679076215837,680.0391424601604 M554.0935523502368,429.9091369704138 L783.2889789107401,297.5153442513971 M783.0679076215837,680.0391424601604 L245.90650619493368,369.9088627482073 M783.2889789107401,297.5153442513971 L245.90650619493368,-12.48736515503748" stroke="black"  stroke-width="4"  fill="red"/></svg>